<svg width="688" height="512" viewBox="0 0 688 512" fill="none" xmlns="http://www.w3.org/2000/svg">
<g clip-path="url(#clip0_77_2)">
<path fill-rule="evenodd" clip-rule="evenodd" d="M468.367 83.9999C489.987 83.9999 511.395 88.2549 531.37 96.5218C551.344 104.789 569.493 116.906 584.78 132.181C600.068 147.456 612.195 165.591 620.468 185.549C628.742 205.507 633 226.898 633 248.5C633 270.103 628.742 291.493 620.468 311.452C612.194 331.41 600.068 349.544 584.78 364.819C569.493 380.094 551.344 392.211 531.37 400.478C520.626 404.925 509.469 408.21 498.086 410.298C488.306 412.091 478.359 413 468.367 413L398.379 413C385.769 413 378.114 399.092 384.862 388.439L414.153 342.195C417.086 337.563 422.187 334.756 427.669 334.756L468.367 334.756C479.845 334.756 491.21 333.571 501.814 329.183C512.418 324.794 522.053 318.361 530.169 310.252C538.285 302.142 544.723 292.515 549.115 281.92C553.507 271.324 555.768 259.968 555.768 248.5C555.768 237.032 553.507 225.676 549.115 215.08C544.723 204.485 538.285 194.858 530.169 186.748C522.053 178.639 512.418 172.206 501.814 167.817C491.21 163.429 479.845 161.17 468.367 161.17L418.864 161.17L385.305 161.17C376.468 161.17 369.305 154.006 369.305 145.17L369.305 100C369.305 91.1634 376.468 84 385.305 84L418.864 84L468.367 83.9999ZM211.39 334.756L360.219 334.756C372.59 334.756 380.281 348.194 374.015 358.86L346.852 405.104C343.978 409.996 338.729 413 333.056 413L211.748 413C203.799 413 195.903 412.239 188.162 410.746C173.367 407.892 159.139 402.365 146.185 394.365C126.454 382.179 110.451 364.731 99.9453 343.951C89.4395 323.17 84.8401 299.867 86.6557 276.616C88.0433 258.848 93.1362 241.639 101.532 226.091C105.803 218.18 116.134 216.684 123.295 222.118L158.743 249.017C165.66 254.266 167.051 264.322 165.589 272.882C165.04 276.096 164.75 279.416 164.486 282.79C163.8 291.574 165.538 300.379 169.507 308.23C173.477 316.081 179.523 322.673 186.978 327.277C194.33 331.818 202.771 334.679 211.39 334.756ZM216.824 162.244L102 162.244C93.1635 162.244 86 155.08 86 146.244L86 100C86 91.1634 93.1634 84 102 84L216.465 84C224.415 84 232.311 84.761 240.052 86.2541C254.846 89.1077 269.075 94.6354 282.028 102.635C301.759 114.821 317.762 132.269 328.268 153.049C338.774 173.83 343.373 197.133 341.558 220.383C340.17 238.152 335.077 255.361 326.682 270.909C322.411 278.82 312.08 280.316 304.918 274.882L269.471 247.983C262.553 242.734 261.163 232.678 262.625 224.118C263.173 220.904 263.464 217.584 263.727 214.21C264.413 205.426 262.675 196.621 258.706 188.77C254.737 180.919 248.691 174.327 241.236 169.723C233.883 165.182 225.443 162.321 216.824 162.244Z" fill="#CBEAA6"/>
<mask id="mask0_77_2" style="mask-type:alpha" maskUnits="userSpaceOnUse" x="-24" y="0" width="768" height="515">
<mask id="mask1_77_2" style="mask-type:luminance" maskUnits="userSpaceOnUse" x="-24" y="0" width="768" height="515">
<path d="M744 0H-24V515H744V0Z" fill="white"/>
</mask>
<g mask="url(#mask1_77_2)">
<path d="M300.549 115.158C286.647 105.319 272.271 95.1442 260.703 82.3794C242.892 62.7281 231.528 35.3744 220.537 8.92087C218.435 3.86048 216.322 -1.21845 214.158 -6.26648H213.043C215.267 -1.08764 217.435 4.12519 219.592 9.31845C230.617 35.8523 242.016 63.2904 259.945 83.0737C271.589 95.9219 286.011 106.129 299.958 116.001C314.179 126.066 328.885 136.474 340.584 149.659C370.478 183.346 377.88 235.346 358.583 276.125C340.035 317.933 298.37 342.508 249.799 340.254C201.195 337.999 161.898 309.653 147.251 266.295C139.696 240.739 138.558 214.674 137.458 189.466C135.332 140.747 133.324 94.7281 87.9745 54.4572C67.0532 32.6593 54.4303 12.806 49.7517 -6.26648H48.7983C49.3574 -3.93456 50.0179 -1.59337 50.8064 0.75915C56.5111 17.7789 68.4335 35.5824 87.2547 55.1864L87.2844 55.2152C132.324 95.1998 134.323 141.011 136.438 189.512C137.541 214.782 138.681 240.911 146.277 266.608C153.822 288.943 168.048 307.724 187.417 320.922C205.413 333.185 226.968 340.226 249.754 341.283C251.746 341.376 253.728 341.421 255.708 341.421C276.358 341.421 296.268 336.41 313.62 326.801C334.093 315.462 349.964 298.084 359.515 276.557C378.979 235.426 371.509 182.962 341.35 148.974C329.572 135.7 314.817 125.257 300.549 115.158Z" fill="#18181A"/>
<path d="M289.963 116.278C277.944 107.763 265.516 98.9583 255.445 87.9929C250.17 82.2517 245.302 75.5814 240.563 67.6C232.456 53.9422 225.885 38.1595 219.53 22.8959C215.448 13.0934 211.327 3.20849 206.748 -6.26648H205.606C210.264 3.32385 214.446 13.3509 218.585 23.2935C224.954 38.59 231.538 54.4067 239.683 68.1273C244.46 76.1706 249.369 82.8975 254.692 88.6913C264.836 99.737 277.309 108.573 289.372 117.12C301.86 125.967 314.772 135.115 325.048 146.696C351.077 175.943 357.578 221.803 340.858 258.221C324.604 293.622 290.246 315.037 250.346 315.035C248.557 315.035 246.752 314.992 244.943 314.905C201.955 312.906 166.452 287.264 154.496 249.58C147.187 226.544 145.946 203.185 144.747 180.593C142.517 138.607 140.411 98.949 102.16 62.5756C78.3439 39.927 66.7778 16.3224 67.8766 -6.26648H66.8301C65.7282 16.5954 77.408 40.4543 101.459 63.3244C139.411 99.4156 141.507 138.874 143.726 180.649C144.93 203.305 146.175 226.732 153.522 249.893C165.609 287.992 201.476 313.915 244.895 315.934C246.726 316.023 248.543 316.066 250.352 316.066C290.65 316.066 325.364 294.423 341.788 258.654C358.675 221.874 352.105 175.552 325.812 146.01C315.459 134.342 302.498 125.158 289.963 116.278Z" fill="#18181A"/>
<path d="M310.276 143.044C301.343 132.979 290.171 125.053 279.364 117.388C269.232 110.201 258.754 102.768 250.186 93.6044C245.608 88.7119 241.396 83.0788 237.309 76.3848C230.027 64.4441 224.171 50.5566 218.508 37.1264C212.164 22.0843 205.713 6.80319 197.083 -6.26648H195.84C204.624 6.86087 211.152 22.3171 217.566 37.5291C223.243 50.9943 229.115 64.9168 236.436 76.9235C240.56 83.6783 244.814 89.3659 249.441 94.311C258.08 103.55 268.601 111.013 278.774 118.231C289.533 125.862 300.658 133.754 309.513 143.732C332.079 168.99 337.678 208.71 323.131 240.324C308.321 272.507 276.52 291.349 240.102 289.558C202.907 287.826 172.15 265.577 161.746 232.875C155.392 212.903 154.355 192.599 153.353 172.963C151.491 136.48 149.732 102.021 116.344 70.6961C90.086 46.0585 81.6882 17.7232 92.5518 -6.26442H91.4316C80.6509 18.0364 89.1777 46.6158 115.646 71.4501C148.729 102.49 150.478 136.748 152.33 173.016C153.335 192.718 154.375 213.092 160.771 233.19C171.307 266.307 202.427 288.837 240.053 290.587C241.683 290.668 243.303 290.708 244.914 290.708C279.697 290.708 309.735 271.89 324.061 240.757C331.158 225.335 333.772 207.281 331.424 189.922C329.003 172.031 321.69 155.821 310.276 143.044Z" fill="#18181A"/>
<path d="M268.806 118.553C260.546 112.675 252.006 106.598 244.927 99.2158C241.039 95.1638 237.482 90.569 234.055 85.1677C227.566 74.9253 222.41 62.8939 217.423 51.259C207.84 28.8967 197.961 5.86898 178.035 -6.26648H176.01C196.672 5.4508 206.73 28.907 216.483 51.6669C221.486 63.3389 226.659 75.4084 233.192 85.7218C236.656 91.1818 240.254 95.8302 244.191 99.9317C251.336 107.383 259.917 113.49 268.215 119.395C277.221 125.803 286.533 132.43 293.977 140.769C313.342 162.464 317.935 195.28 305.403 222.426C292.806 249.716 265.921 265.711 235.261 264.21C203.83 262.653 177.818 243.797 168.994 216.169C163.594 199.261 162.756 182.015 161.946 165.338C160.442 134.369 159.022 105.118 130.529 78.8146C115.549 64.9848 107.332 48.6809 107.393 32.9055C107.441 20.6423 112.575 9.51827 122.24 0.735461C125.039 -1.80761 128.338 -4.21781 132.005 -6.26442H129.872C126.973 -4.50003 124.185 -2.41943 121.554 -0.0287987C111.67 8.95383 106.419 20.3415 106.369 32.9024C106.307 48.9714 114.641 65.5462 129.838 79.5737C158.02 105.592 159.43 134.638 160.924 165.389C161.737 182.133 162.578 199.447 168.02 216.485C176.976 244.525 203.35 263.663 235.213 265.24C236.57 265.306 237.916 265.34 239.257 265.34C268.653 265.34 294.116 249.332 306.334 222.862C319.035 195.347 314.377 162.08 294.74 140.083C287.218 131.655 277.858 124.995 268.806 118.553Z" fill="#18181A"/>
<path d="M233.738 239.973C232.62 239.973 231.497 239.945 230.368 239.887C204.693 238.57 182.55 222.451 175.266 199.778C170.776 185.8 170.127 171.549 169.499 157.767C168.35 132.548 167.265 108.727 144.025 87.6952C130.663 75.603 123.841 60.5712 125.308 46.4551C126.468 35.3125 132.85 25.8334 143.282 19.7667C156.009 12.3662 169.678 11.3321 180.79 16.928C199.158 26.1805 207.829 46.0111 216.215 65.1887C220.553 75.1076 225.038 85.3643 230.797 93.9463C233.526 98.0024 236.509 101.663 239.665 104.823C245.221 110.397 251.794 115.089 258.15 119.626C265.49 124.865 273.08 130.283 279.2 137.114C295.306 155.092 299.084 182.357 288.603 204.962C278.483 226.784 257.662 239.973 233.738 239.973ZM143.795 20.6587C133.654 26.5555 127.451 35.7554 126.327 46.5622C124.895 60.3477 131.595 75.0602 144.71 86.9299C168.268 108.249 169.363 132.279 170.522 157.721C171.147 171.434 171.793 185.614 176.241 199.462C183.395 221.731 205.168 237.564 230.42 238.859C255.329 240.143 277.264 226.981 287.676 204.526C297.987 182.292 294.276 155.477 278.441 137.803C272.397 131.056 264.854 125.672 257.559 120.466C251.168 115.905 244.56 111.187 238.943 105.552C235.741 102.345 232.715 98.6338 229.949 94.5221C224.138 85.8628 219.634 75.5629 215.278 65.6017C206.965 46.592 198.37 26.9345 180.332 17.8478C169.534 12.4094 156.218 13.4343 143.795 20.6587Z" fill="#18181A"/>
<path d="M228.206 214.611C227.318 214.611 226.423 214.587 225.523 214.539C205.55 213.46 188.266 200.815 182.514 183.073C178.973 172.152 178.506 160.973 178.055 150.162C177.233 130.495 176.455 111.919 158.216 95.822C146.269 85.2779 140.817 71.033 143.99 58.6472C146.478 48.9323 154.161 41.9798 165.071 39.5727C175.359 37.3015 184.743 38.9856 192.205 44.4425C203.059 52.3797 208.989 65.7007 214.723 78.5839C218.469 87 222.343 95.7025 227.534 102.719C229.595 105.499 231.904 108.092 234.397 110.428C238.383 114.169 242.947 117.438 247.36 120.599C253.037 124.664 258.906 128.867 263.663 134.149C276.437 148.331 279.267 169.102 270.874 187.067C262.85 204.24 246.665 214.611 228.206 214.611ZM165.181 40.0753L165.291 40.578C154.618 42.9336 147.405 49.4421 144.982 58.9037C141.907 70.9115 147.237 84.7598 158.892 95.0464C177.46 111.435 178.246 130.224 179.078 150.117C179.526 160.859 179.991 171.967 183.489 182.754C189.111 200.094 206.025 212.454 225.58 213.51C244.716 214.55 261.719 204.243 269.949 186.627C278.165 169.039 275.4 148.711 262.906 134.839C258.223 129.64 252.399 125.47 246.767 121.436C242.327 118.256 237.735 114.968 233.7 111.18C231.164 108.802 228.813 106.162 226.713 103.332C221.455 96.2247 217.559 87.4697 213.789 79.0031C208.11 66.2435 202.238 53.0502 191.604 45.2737C182.484 38.6065 172.261 39.0391 165.292 40.5769L165.181 40.0753Z" fill="#18181A"/>
<path d="M222.984 189.271C222.218 189.271 221.448 189.244 220.673 189.188C207.15 188.558 194.436 179.18 189.768 166.384C187.498 158.708 187.159 150.95 186.833 143.446C186.21 129.168 185.621 115.681 172.409 103.947C160.655 94.2791 158.632 79.9322 162.707 70.7539C166.638 61.9 175.684 57.6698 186.901 59.427C201.43 63.3574 207.019 76.8103 212.424 89.8212C215.666 97.6245 219.019 105.695 224.251 111.466C227.648 115.216 231.888 118.216 235.988 121.118C240.229 124.12 244.614 127.224 248.128 131.184C257.525 141.273 259.456 155.82 253.159 169.137C247.211 181.72 235.791 189.27 222.984 189.271ZM181.876 60.045C173.372 60.045 166.847 63.9548 163.642 71.1751C159.724 79.9971 161.703 93.8156 173.064 103.156L173.079 103.168C186.626 115.194 187.224 128.895 187.857 143.401C188.181 150.843 188.517 158.537 190.741 166.061C195.261 178.448 207.598 187.549 220.733 188.162C234.054 189.098 246.116 181.64 252.236 168.698C258.348 155.771 256.484 141.664 247.374 131.882C243.93 128.001 239.593 124.932 235.399 121.963C231.254 119.03 226.968 115.997 223.494 112.163C218.144 106.259 214.756 98.1066 211.48 90.2209C206.17 77.4396 200.679 64.2237 186.69 60.4364C185.025 60.1737 183.418 60.045 181.876 60.045Z" fill="#18181A"/>
</g>
<mask id="mask2_77_2" style="mask-type:luminance" maskUnits="userSpaceOnUse" x="-24" y="0" width="768" height="515">
<path d="M744 0H-24V515H744V0Z" fill="white"/>
</mask>
<g mask="url(#mask2_77_2)">
<path d="M234.701 521.831C270.688 506.361 306.719 489.669 333.373 464.988C352.62 447.166 367.882 425.123 382.641 403.805C397.708 382.042 413.288 359.539 433.087 341.589C465.073 312.591 508.159 297.252 551.108 297.252C576.107 297.252 601.062 302.45 623.749 313.177C687.005 341.199 724.39 404.684 721.31 478.856C720.689 493.82 718.438 508.201 714.744 521.831H715.692C719.468 508.03 721.721 493.633 722.333 478.898C723.772 444.224 716.086 410.629 700.104 381.75C682.901 350.659 656.64 326.621 624.172 312.239C562.16 282.92 483.303 294.675 432.401 340.825C412.515 358.854 396.9 381.407 381.8 403.217C367.073 424.489 351.844 446.486 332.68 464.23C305.605 489.301 268.729 506.129 232.092 521.832H234.701V521.831Z" fill="#18181A"/>
<path d="M257.745 521.831C286.563 509.55 314.88 496.042 336.147 476.889C353.295 461.431 367.007 442.327 380.268 423.853C393.389 405.576 406.956 386.675 423.814 371.379C452.345 345.487 491.486 331.61 530.971 331.61C550.144 331.61 569.399 334.883 587.557 341.64C647.721 364.032 686.14 422.21 683.16 486.408C682.588 498.728 680.806 510.575 677.928 521.831H678.982C681.838 510.583 683.612 498.755 684.183 486.457C687.186 421.808 648.497 363.222 587.913 340.675C560.738 330.56 530.926 327.886 501.702 332.948C471.737 338.135 444.566 351.16 423.129 370.615C406.189 385.985 392.59 404.93 379.439 423.252C366.21 441.682 352.53 460.739 335.464 476.124C313.764 495.664 284.618 509.329 255.112 521.832H257.745V521.831Z" fill="#18181A"/>
<path d="M282.833 521.831C303.432 512.629 323.261 502.368 338.92 488.793C354.018 475.673 366.223 459.477 378.026 443.815C389.153 429.049 400.66 413.781 414.542 401.171C440.443 377.637 475.513 364.959 511.716 364.959C524.917 364.959 538.274 366.647 551.384 370.108C608.585 385.211 647.961 437.298 645.01 493.959C644.505 503.655 643.165 512.961 641.064 521.831H642.121C644.202 512.973 645.528 503.684 646.032 494.013C647.535 465.17 638.84 437.717 620.889 414.622C603.715 392.53 579.124 376.366 551.644 369.112C502.25 356.068 449.453 368.061 413.855 400.406C399.901 413.081 388.365 428.389 377.208 443.192C365.438 458.812 353.265 474.965 338.249 488.014C322.159 501.962 301.594 512.421 280.313 521.832H282.833V521.831Z" fill="#18181A"/>
<path d="M307.155 521.831C319.724 515.73 331.641 508.946 341.69 500.701C354.842 489.863 365.629 476.503 376.061 463.582C385.101 452.387 394.447 440.811 405.272 430.961H405.273C429.192 409.189 461.558 397.387 496.153 397.387C502.451 397.387 508.825 397.78 515.233 398.572C562.897 404.474 610.202 444.59 606.861 501.509C606.447 508.559 605.523 515.335 604.141 521.83H605.192C606.557 515.35 607.47 508.595 607.883 501.569C609.42 475.391 600.121 450.272 581.7 430.837C564.589 412.783 540.409 400.649 515.358 397.549C473.451 392.363 433.079 404.262 404.586 430.195C393.701 440.097 384.33 451.705 375.265 462.93C364.866 475.812 354.112 489.131 341.042 499.901C330.556 508.504 317.995 515.516 304.774 521.83L307.155 521.831Z" fill="#18181A"/>
<path d="M330.119 521.831C335.182 518.99 340.014 515.95 344.453 512.61C355.952 503.904 365.567 493.176 374.863 482.801C381.547 475.343 388.458 467.63 396.002 460.752C423.537 435.622 456.395 428.543 479.111 427.029C481.04 426.9 482.966 426.836 484.893 426.836C508.278 426.836 531.342 436.201 547.524 452.486C558.191 463.223 570.527 481.754 568.711 509.06C568.418 513.469 567.903 517.723 567.185 521.831H568.229C568.935 517.743 569.441 513.511 569.733 509.128C571.574 481.436 559.066 462.645 548.247 451.758C530.525 433.924 504.663 424.294 479.041 426C456.163 427.524 423.065 434.659 395.312 459.989C387.731 466.902 380.802 474.634 374.101 482.112C364.836 492.45 355.256 503.141 343.836 511.787C338.968 515.449 333.619 518.756 327.998 521.832H330.119V521.831Z" fill="#18181A"/>
<path d="M351.179 521.831C360.937 514.938 369.494 506.816 377.799 498.926C380.709 496.16 383.717 493.302 386.732 490.542V490.541C404.521 474.231 423.462 462.425 443.028 455.452C450.157 452.911 457.746 451.675 465.366 451.675C480.537 451.675 495.833 456.574 507.854 465.827C524.037 478.284 532.101 496.319 530.562 516.61C530.427 518.391 530.241 520.123 530.03 521.831H531.064C531.268 520.148 531.451 518.441 531.583 516.688C533.149 496.038 524.942 477.685 508.476 465.009C489.867 450.686 464.657 446.65 442.685 454.479C422.99 461.499 403.932 473.377 386.042 489.779V489.778C383.022 492.545 380.008 495.408 377.095 498.176C368.471 506.371 359.559 514.802 349.347 521.83L351.179 521.831Z" fill="#18181A"/>
<path d="M375.766 521.831C376.343 521.343 376.909 520.842 377.461 520.331C383.189 515.029 387.718 508.485 392.098 502.158C396.549 495.732 401.15 489.086 406.989 483.792C416.047 475.173 427.59 470.731 439.696 470.731C447.305 470.731 455.136 472.486 462.707 476.063C481.602 484.989 492.847 502.386 492.503 521.83H493.526C493.865 501.968 482.4 484.228 463.144 475.13C443.134 465.677 421.348 468.711 406.294 483.035C400.376 488.399 395.74 495.094 391.258 501.569C386.909 507.851 382.411 514.345 376.767 519.572C375.923 520.354 375.038 521.101 374.132 521.83L375.766 521.831Z" fill="#18181A"/>
</g>
<mask id="mask3_77_2" style="mask-type:luminance" maskUnits="userSpaceOnUse" x="-24" y="0" width="768" height="515">
<path d="M744 0H-24V515H744V0Z" fill="white"/>
</mask>
<g mask="url(#mask3_77_2)">
<path d="M553.362 274.349C531.545 274.35 507.253 269.226 482.954 254.165C442.083 230.476 423.34 201.017 427.262 166.613C430.018 142.451 444.451 118.168 467.907 98.2372C485.284 83.4701 505.609 72.2431 525.265 61.3859C528.968 59.3403 532.669 57.2958 536.35 55.2286C539.638 53.3828 542.922 51.5133 546.21 49.6418C567.685 37.4157 589.891 24.7735 614.076 18.5358C645.71 10.3762 676.343 15.7075 696.01 32.8034C719.117 52.8874 727.87 89.3051 719.424 130.221C707.443 188.259 668.084 238.22 616.704 260.607C601.974 267.025 579.44 274.348 553.362 274.349ZM642.782 15.8146C633.588 15.8146 624.011 17.0372 614.331 19.5339C590.278 25.7376 568.132 38.3458 546.715 50.5379C543.426 52.4105 540.14 54.281 536.851 56.1277C533.166 58.196 529.464 60.2416 525.759 62.2882C506.147 73.1217 485.868 84.323 468.567 99.0242C445.312 118.786 431.004 142.83 428.28 166.73C424.409 200.688 442.98 229.808 483.478 253.28C536.439 286.11 589.426 271.369 616.298 259.661C667.376 237.405 706.507 187.726 718.421 130.011C726.79 89.4658 718.161 53.4178 695.339 33.5821C681.93 21.9256 663.325 15.8146 642.782 15.8146Z" fill="#18181A"/>
<path d="M558.617 -6.2666C558.775 2.76032 556.232 12.2919 550.995 20.7554C543.347 33.1154 530.701 43.435 512.332 52.3043C505.19 55.7538 497.707 58.7892 490.47 61.7247C482.267 65.0516 473.785 68.4918 465.742 72.5572C455.435 77.767 445.57 84.1427 436.029 90.3083C427.329 95.931 418.332 101.745 409.038 106.648C392.84 115.194 368.726 124.033 345.853 117.6C322.084 110.916 305.945 89.7315 296.593 73.1371C291.195 63.5612 286.614 53.3354 282.183 43.4453C277.402 32.7735 272.458 21.7381 266.467 11.4679C263.166 5.80809 259.046 -0.361612 254.073 -6.26557H252.723C257.907 -0.211232 262.185 6.16138 265.584 11.9891C271.547 22.2119 276.479 33.2215 281.249 43.8697C285.689 53.7803 290.281 64.0278 295.702 73.6459C305.15 90.4092 321.473 111.815 345.578 118.593C350.893 120.088 356.52 120.829 362.405 120.829C376.851 120.829 392.841 116.357 409.514 107.562C418.848 102.637 427.864 96.8106 436.583 91.1765C446.101 85.0254 455.943 78.6651 466.203 73.4791C474.208 69.4332 482.67 66.0013 490.854 62.6816C498.106 59.7399 505.605 56.6983 512.777 53.2344C531.324 44.2776 544.111 33.8323 551.866 21.3013C557.203 12.6761 559.794 2.95499 559.636 -6.26454H558.617V-6.2666Z" fill="#18181A"/>
<path d="M645.238 -6.26655C644.463 -4.91004 643.529 -3.66065 642.469 -2.60902C637.384 2.4318 630.124 4.59892 623.719 6.5106L580.602 19.3825C578.269 20.0788 575.623 20.8657 573.076 20.5959C570.818 20.3538 568.224 19.0127 567.52 16.5644C566.878 14.3252 567.976 11.9645 569.156 9.73862C572.028 4.31876 575.094 -1.02076 578.32 -6.26552H577.115C574.001 -1.17629 571.035 4.00152 568.252 9.25452C567.03 11.5617 565.788 14.2418 566.536 16.8508C567.371 19.7595 570.369 21.3426 572.968 21.6207C573.362 21.6629 573.756 21.6825 574.149 21.6825C576.5 21.6825 578.815 20.9914 580.892 20.3713L624.011 7.49837C630.531 5.55167 637.921 3.34541 643.186 -1.87669C644.445 -3.12402 645.545 -4.62473 646.414 -6.26758L645.238 -6.26655Z" fill="#18181A"/>
<path d="M752.02 71.4717C751.672 71.586 751.322 71.69 750.966 71.7683C745.625 72.9518 740.385 69.8412 737.256 66.5369C734.163 63.2718 732.013 59.1488 729.935 55.1606C729.593 54.5065 729.252 53.8515 728.908 53.2026C715.837 28.5485 695.696 7.71982 671.647 -6.26758H669.594C694.161 7.62197 714.743 28.6762 728.004 53.6867C728.348 54.3345 728.687 54.9865 729.028 55.6385C731.139 59.6895 733.322 63.8775 736.515 67.2466C739.338 70.2274 743.804 73.0538 748.61 73.0538C749.461 73.0538 750.323 72.9652 751.188 72.7736C751.467 72.7118 751.746 72.6376 752.021 72.5552V71.4717H752.02Z" fill="#18181A"/>
<path d="M752.02 401.741C745.215 384.289 735.32 367.815 722.683 353.145C703.419 330.779 679.147 314.109 652.492 304.935L651.881 304.724C645.829 302.647 639.571 300.498 636.539 295.193C633.303 289.527 635.315 282.158 638.743 277.368C642.087 272.699 646.902 269.234 651.558 265.883L653.23 264.676C696.224 233.443 726.203 187.043 752.02 143.117V141.089C726.053 185.369 695.952 232.371 652.63 263.842L650.962 265.046C646.239 268.445 641.354 271.96 637.914 276.767C634.557 281.455 631.95 289.228 635.652 295.707C638.875 301.349 645.61 303.661 651.55 305.7L652.161 305.909C698.105 321.721 735.219 359.035 752.02 404.502V401.741Z" fill="#18181A"/>
<path d="M557.486 252.504C539.32 252.504 518.934 248.292 498.262 235.898C464.266 215.514 448.649 190.959 451.846 162.913C454.141 142.773 466.17 122.535 485.717 105.926C500.188 93.628 517.109 84.2807 533.475 75.2404C536.562 73.5347 539.648 71.8301 542.717 70.1069C545.455 68.5701 548.189 67.0138 550.926 65.4554C568.811 55.2728 587.306 44.7442 607.453 39.5478C633.819 32.7457 659.352 37.1932 675.749 51.4454C695.012 68.189 702.31 98.5421 695.272 132.639C685.291 180.989 652.501 222.612 609.696 241.263C597.642 246.516 579.142 252.504 557.486 252.504ZM631.375 37.4518C623.728 37.4518 615.76 38.4694 607.708 40.5459C587.693 45.7083 569.259 56.2029 551.432 66.3515C548.693 67.9109 545.956 69.4683 543.218 71.0061C540.146 72.7303 537.058 74.436 533.968 76.1427C517.648 85.1583 500.772 94.4808 486.378 106.712C467.033 123.151 455.131 143.151 452.865 163.029C449.717 190.636 465.168 214.854 498.787 235.011C543.711 261.947 587.305 249.898 609.29 240.316C651.794 221.797 684.357 180.457 694.272 132.429C701.233 98.7028 694.059 68.7195 675.081 52.224C663.929 42.5328 648.459 37.4518 631.375 37.4518Z" fill="#18181A"/>
<path d="M560.932 230.911C546.404 230.911 530.096 227.541 513.562 217.628C486.361 201.319 473.869 181.666 476.428 159.214C478.266 143.097 487.888 126.903 503.526 113.617C515.096 103.785 528.62 96.3143 541.699 89.0888C544.165 87.7261 546.63 86.3645 549.082 84.9884C551.27 83.7606 553.455 82.5174 555.64 81.2721C569.936 73.1331 584.718 64.718 600.829 60.563C621.928 55.1215 642.363 58.6822 655.488 70.0905C670.908 83.4928 676.752 107.78 671.121 135.061C663.14 173.724 636.918 207.006 602.689 221.921C593.048 226.121 578.253 230.91 560.932 230.911ZM619.969 59.0901C613.868 59.0901 607.509 59.9027 601.084 61.56C585.106 65.681 570.383 74.0632 556.146 82.1682C553.957 83.4145 551.771 84.6588 549.583 85.8876C547.129 87.2657 544.661 88.6284 542.193 89.9921C529.156 97.1929 515.678 104.639 504.186 114.404C488.75 127.52 479.254 143.476 477.446 159.333C474.937 181.346 487.265 200.66 514.086 216.743C549.942 238.241 584.733 228.622 602.281 220.975C636.211 206.192 662.205 173.19 670.119 134.851C675.673 107.942 669.953 84.0233 654.82 70.8691C645.928 63.141 633.594 59.0901 619.969 59.0901Z" fill="#18181A"/>
<path d="M564.379 209.316C553.485 209.316 541.262 206.79 528.863 199.356C508.46 187.123 499.089 172.373 501.011 155.516C502.39 143.421 509.607 131.272 521.336 121.307C530.004 113.941 540.13 108.347 549.925 102.936C551.771 101.916 553.615 100.898 555.45 99.8677C557.088 98.9479 558.724 98.0168 560.362 97.0847C571.067 90.9912 582.137 84.6896 594.207 81.5759C610.04 77.493 625.376 80.169 635.23 88.7334C646.805 98.7945 651.194 117.017 646.97 137.48C640.988 166.455 621.336 191.4 595.682 202.577C588.455 205.725 577.363 209.316 564.379 209.316ZM608.562 80.7283C604.006 80.7283 599.259 81.3339 594.46 82.572C582.522 85.6517 571.513 91.9182 560.865 97.9797C559.226 98.9129 557.588 99.8451 555.949 100.766C554.111 101.797 552.264 102.818 550.417 103.838C540.667 109.224 530.586 114.793 521.995 122.093C510.468 131.888 503.377 143.799 502.029 155.632C500.156 172.05 509.361 186.464 529.387 198.471C556.169 214.528 582.163 207.343 595.273 201.631C620.628 190.584 640.052 165.922 645.968 137.27C650.115 117.178 645.85 99.3249 634.559 89.5121C627.929 83.7492 618.727 80.7283 608.562 80.7283Z" fill="#18181A"/>
<path d="M567.602 187.803C560.34 187.803 552.25 186.097 544.156 181.081C530.53 173.183 524.28 163.334 525.592 151.816C526.512 143.745 531.325 135.641 539.143 128.996C544.91 124.095 551.639 120.378 558.147 116.782C559.372 116.106 560.597 115.429 561.814 114.745C562.901 114.135 563.986 113.517 565.074 112.898C572.188 108.847 579.547 104.659 587.582 102.586C598.147 99.8626 608.384 101.651 614.967 107.373C622.698 114.093 625.632 126.252 622.816 139.897C618.834 159.184 605.75 175.789 588.672 183.231C583.772 185.368 576.278 187.803 567.602 187.803ZM597.156 102.367C594.148 102.367 591.009 102.767 587.837 103.585C579.933 105.623 572.635 109.778 565.578 113.795C564.49 114.416 563.403 115.034 562.315 115.645C561.094 116.33 559.867 117.008 558.641 117.686C552.176 121.257 545.494 124.948 539.803 129.783C532.186 136.258 527.5 144.124 526.61 151.933C525.347 163.006 531.428 172.515 544.681 180.196C562.059 190.969 579.446 186.13 588.263 182.287C605.042 174.976 617.898 158.654 621.813 139.69C624.553 126.415 621.743 114.627 614.296 108.155C609.929 104.357 603.862 102.367 597.156 102.367Z" fill="#18181A"/>
</g>
<mask id="mask4_77_2" style="mask-type:luminance" maskUnits="userSpaceOnUse" x="-24" y="0" width="768" height="515">
<path d="M744 0H-24V515H744V0Z" fill="white"/>
</mask>
<g mask="url(#mask4_77_2)">
<path d="M56.5188 493.358C49.6806 489.324 42.1183 486.218 34.8049 483.214C22.3551 478.101 9.48139 472.815 0.322731 462.873C-12.1045 449.382 -15.2871 430.173 -18.3642 411.597C-20.1511 400.815 -21.9718 389.827 -25.6162 379.857V383.011C-22.6282 392.146 -20.9857 402.039 -19.3749 411.766C-16.2732 430.493 -13.065 449.856 -0.428887 463.573C8.88337 473.683 21.8646 479.013 34.4178 484.168C41.6985 487.158 49.2269 490.249 56.0017 494.247C68.0419 501.349 76.7869 511.06 80.9463 521.83H82.0492C77.8631 510.695 68.898 500.661 56.5188 493.358Z" fill="#18181A"/>
<path d="M98.9115 514.213C92.5924 499.211 78.1069 488.185 65.3263 478.458L64.9843 478.197C58.8382 473.518 52.2058 469.727 45.7915 466.063C34.5889 459.661 24.0069 453.614 16.0565 443.312C13.5928 440.128 11.4219 436.621 9.42102 432.592C4.13923 421.932 1.14813 409.602 -1.74263 397.678C-6.38237 378.548 -11.1747 358.79 -25.6172 346.103V347.486C-11.9642 359.91 -7.47293 378.398 -2.73795 397.921C0.167134 409.901 3.17155 422.288 8.50454 433.051C10.5362 437.143 12.7419 440.707 15.2476 443.944C23.3239 454.408 33.9909 460.504 45.2846 466.958C51.6702 470.607 58.273 474.38 64.3658 479.018L64.7078 479.279C77.386 488.929 91.7557 499.865 97.9684 514.617C98.9555 516.942 99.6815 519.365 100.163 521.831H101.206C100.713 519.225 99.9529 516.664 98.9115 514.213Z" fill="#18181A"/>
<path d="M118.373 513.789C117.672 510.426 116.501 507.142 114.891 504.028C108.746 492.045 97.4512 482.923 86.5282 474.1C82.0943 470.518 77.5088 466.815 73.4395 463.034C68.5253 458.47 63.4555 454.463 58.5525 450.588C48.4907 442.635 38.988 435.125 31.7903 423.755C29.7433 420.539 27.8397 416.97 25.9709 412.844C22.0961 404.265 19.0896 394.836 16.1815 385.716C9.42614 364.53 2.44041 342.622 -15.8697 330.762C-18.953 328.764 -22.238 327.179 -25.6172 325.896V326.992C-22.4295 328.228 -19.3339 329.742 -16.4237 331.627C1.57718 343.289 8.19734 364.05 15.2066 386.031C18.123 395.178 21.1397 404.637 25.0391 413.27C26.9283 417.442 28.8555 421.053 30.9271 424.31C38.2169 435.826 47.7872 443.39 57.9197 451.398C62.8062 455.26 67.8597 459.254 72.7442 463.79C76.8402 467.594 81.4389 471.309 85.8872 474.902C96.7273 483.658 107.935 492.711 113.982 504.501C115.549 507.533 116.689 510.728 117.37 513.998C117.902 516.569 118.111 519.195 118.037 521.829H119.059C119.134 519.126 118.917 516.43 118.373 513.789Z" fill="#18181A"/>
<path d="M135.368 504.886C134.45 501.063 132.937 497.352 130.872 493.855C124.358 482.753 113.359 474.225 102.722 465.979C95.4309 460.328 87.8912 454.482 81.8855 447.873C79.5856 445.341 77.3215 442.909 75.1045 440.526C64.244 428.856 54.8631 418.777 47.521 404.205C45.9175 401.044 44.3272 397.515 42.5188 393.102C40.5445 388.265 38.6337 383.196 36.7844 378.294C27.5152 353.72 17.9305 328.308 -4.61592 316.7C-11.1132 313.356 -18.1788 311.438 -25.6182 310.38V311.425C-18.3314 312.472 -11.4214 314.354 -5.08287 317.617C17.1123 329.044 26.6263 354.266 35.827 378.659C37.6784 383.568 39.5922 388.642 41.5716 393.492C43.3913 397.932 44.9918 401.486 46.6087 404.67C54.0153 419.372 63.4422 429.501 74.357 441.228C76.5719 443.609 78.8329 446.037 81.1297 448.565C87.1959 455.241 94.7704 461.114 102.097 466.793C112.657 474.98 123.577 483.446 129.991 494.378C132.005 497.788 133.479 501.403 134.373 505.126C135.725 510.79 135.581 516.444 134.342 521.83H135.336C136.601 516.154 136.678 510.37 135.368 504.886Z" fill="#18181A"/>
<path d="M152.364 495.985C151.212 491.636 149.41 487.613 146.855 483.687C139.817 472.818 128.465 464.536 117.485 456.527C107.684 449.378 97.5496 441.984 90.3263 432.707C78.369 417.35 70.2723 402.98 63.2497 384.659C62.1468 381.803 61.0696 378.844 60.0261 375.983L59.0677 373.356C48.0341 343.123 34.0462 313.632 6.63886 302.644C-3.4629 298.596 -14.4699 297.445 -25.6182 297.267V298.297C-14.5743 298.475 -3.68715 299.614 6.25998 303.602C33.2946 314.439 47.1555 343.703 58.1072 373.712L59.0656 376.337C60.1101 379.204 61.1894 382.168 62.2953 385.03C69.3558 403.453 77.4976 417.901 89.5204 433.344C96.8318 442.734 107.025 450.171 116.884 457.361C127.788 465.316 139.063 473.541 145.997 484.249C148.492 488.085 150.251 492.01 151.374 496.25C153.703 505.072 152.632 513.856 149.379 521.831H150.484C153.696 513.764 154.715 504.896 152.364 495.985Z" fill="#18181A"/>
<path d="M169.362 487.088C167.989 482.266 165.856 477.828 162.841 473.522C155.204 462.592 143.193 454.373 131.578 446.426C119.382 438.081 106.772 429.453 98.765 417.54C89.0779 403.13 84.9461 387.567 80.5716 371.093C80.0463 369.115 79.5179 367.122 78.9741 365.111C77.9778 361.452 76.8821 357.525 75.6174 353.609C64.8183 320.082 43.7792 296.384 17.8966 288.59C3.96612 284.396 -11.0027 284.727 -25.6162 285.347V286.378C-11.0754 285.761 3.81866 285.427 17.6027 289.576C43.1587 297.271 63.949 320.726 74.6436 353.928C75.9021 357.824 76.9937 361.736 77.986 365.382C78.5287 367.39 79.0571 369.382 79.5824 371.358C83.9784 387.92 88.1328 403.562 97.9161 418.117C106.033 430.194 118.727 438.878 131.002 447.276C143.072 455.536 154.474 463.336 162.003 474.114C164.951 478.325 167.037 482.662 168.376 487.371C171.785 499.371 169.113 511.455 163.141 521.83H164.317C170.213 511.346 172.795 499.178 169.362 487.088Z" fill="#18181A"/>
<path d="M186.358 478.193C180.464 458.576 162.57 447.074 145.266 435.95C130.713 426.595 115.664 416.921 107.199 402.375C99.9866 389.983 98.3216 375.283 96.7109 361.068C95.6859 352.023 94.627 342.671 92.1653 333.866C83.9959 304.652 58.6744 280.812 29.1545 274.544C14.3833 271.408 -0.976675 272.39 -15.8318 273.337C-19.0523 273.542 -22.3312 273.749 -25.6172 273.917V274.948C-22.3076 274.779 -19.0083 274.571 -15.7673 274.365C-0.981795 273.421 14.3086 272.445 28.9426 275.552C58.0999 281.743 83.1101 305.289 91.1792 334.145C93.6184 342.869 94.6731 352.18 95.693 361.184C97.315 375.505 98.9924 390.314 106.314 402.895C114.904 417.655 130.058 427.396 144.714 436.817C162.651 448.347 179.593 459.238 185.377 478.49C189.888 493.505 185.179 509.17 175.951 521.83H177.324C178.747 519.838 180.051 517.784 181.216 515.684C188.081 503.319 189.907 490.004 186.358 478.193Z" fill="#18181A"/>
</g>
<mask id="mask5_77_2" style="mask-type:luminance" maskUnits="userSpaceOnUse" x="-24" y="0" width="768" height="515">
<path d="M744 0H-24V515H744V0Z" fill="white"/>
</mask>
<g mask="url(#mask5_77_2)">
<path d="M249.948 371.332C238.75 367.883 226.943 366.124 215.525 364.423C201.965 362.402 187.943 360.314 174.968 355.379C149.714 345.773 128.788 324.929 118.991 299.622C108.834 273.383 110.466 244.244 112.043 216.064C112.255 212.256 112.468 208.459 112.652 204.679C114.163 173.581 113.029 138.284 93.161 112.277C84.8328 101.376 73.7173 92.9514 62.9673 84.8051C55.7553 79.3389 48.2975 73.6873 41.7347 67.3311C22.0083 48.2246 9.96711 21.2726 7.84436 -6.26648H6.81934C8.94618 21.5476 21.1011 48.7767 41.0261 68.0738C47.6339 74.4732 55.1163 80.1443 62.3529 85.6291C73.0476 93.7342 84.1068 102.115 92.35 112.907C112.016 138.648 113.132 173.718 111.63 204.629C111.447 208.406 111.234 212.202 111.021 216.006C109.437 244.296 107.8 273.548 118.038 299.996C127.938 325.571 149.086 346.634 174.607 356.342C187.684 361.316 201.762 363.413 215.375 365.442C226.756 367.137 238.525 368.891 249.649 372.317C274.378 379.933 297.956 400.777 295.172 425.882C293.135 444.25 277.983 457.949 262.638 470.406L219.183 505.684C214.086 509.821 207.803 514.933 204.834 521.831H205.946C208.889 515.366 214.921 510.466 219.826 506.484L263.281 471.206C278.792 458.616 294.109 444.753 296.189 425.997C299.035 400.334 275.081 379.071 249.948 371.332Z" fill="#18181A"/>
</g>
<mask id="mask6_77_2" style="mask-type:luminance" maskUnits="userSpaceOnUse" x="-24" y="0" width="768" height="515">
<path d="M744 0H-24V515H744V0Z" fill="white"/>
</mask>
<g mask="url(#mask6_77_2)">
<path d="M229.956 353.802C192.226 345.131 153.211 336.165 138.041 309.88C121.396 281.04 122.653 244.91 123.871 209.97C124.988 177.871 126.144 144.679 113.618 116.72C104.873 97.2887 87.8441 79.5614 71.3752 62.417C51.0242 41.233 30.1868 19.5391 23.625 -6.26648H22.5498C29.0891 19.877 50.1087 41.7624 70.6379 63.1339C87.0454 80.2144 104.012 97.8768 112.684 117.145C125.112 144.885 123.961 177.955 122.847 209.936C121.625 245.022 120.361 281.302 137.155 310.399C152.55 337.072 191.785 346.087 229.729 354.808C268.123 363.631 304.388 371.966 317.254 396.945C329.163 434.964 301.031 458.167 271.247 482.732C256.527 494.872 241.498 507.271 231.086 521.832H232.363C242.687 507.628 257.439 495.452 271.896 483.529C301.955 458.737 330.349 435.319 318.197 396.554C305.079 371.067 268.588 362.681 229.956 353.802Z" fill="#18181A"/>
</g>
<mask id="mask7_77_2" style="mask-type:luminance" maskUnits="userSpaceOnUse" x="-24" y="0" width="768" height="515">
<path d="M744 0H-24V515H744V0Z" fill="white"/>
</mask>
<g mask="url(#mask7_77_2)">
<path d="M219.941 455.103C215.633 443.442 204.62 434.322 187.209 428C183.273 426.57 179.191 425.295 175.245 424.062C165.576 421.04 155.578 417.916 147.036 412.3C130.922 401.706 119.739 382.353 112.85 353.137C111.519 347.495 110.334 341.686 109.187 336.067C105.675 318.866 102.044 301.079 93.7377 285.381C81.5193 262.29 59.1306 244.849 33.849 238.727C14.1462 233.955 -7.10175 236.11 -25.6167 244.377V245.506C-7.2103 237.175 13.9742 234.972 33.6084 239.728C58.6104 245.783 80.7503 263.031 92.8335 285.865C101.07 301.43 104.686 319.144 108.183 336.273C109.331 341.899 110.519 347.717 111.853 353.373C118.806 382.86 130.132 402.417 146.476 413.163C155.139 418.857 165.205 422.003 174.941 425.046C178.877 426.276 182.947 427.548 186.861 428.97C203.975 435.184 214.783 444.099 218.98 455.463C222.564 465.164 221.337 477.238 215.335 491.348C210.666 502.322 204.255 512.622 196.533 521.832H197.857C205.399 512.71 211.678 502.559 216.276 491.752C222.385 477.39 223.618 465.06 219.941 455.103Z" fill="#18181A"/>
</g>
<mask id="mask8_77_2" style="mask-type:luminance" maskUnits="userSpaceOnUse" x="-24" y="0" width="768" height="515">
<path d="M744 0H-24V515H744V0Z" fill="white"/>
</mask>
<g mask="url(#mask8_77_2)">
<path d="M54.7222 127.886C51.3697 125.566 47.9034 123.166 44.6205 120.69C20.9917 102.862 2.81364 77.5281 -6.56313 49.3545C-12.489 31.5531 -14.92 12.529 -13.8479 -6.26648H-14.8729C-15.944 12.6402 -13.4946 31.7755 -7.53388 49.6821C1.90842 78.0514 20.2135 103.562 44.0081 121.514C47.3075 124.004 50.7819 126.409 54.1427 128.735C63.4242 135.159 73.0222 141.802 79.8635 150.887C88.9361 162.937 91.8115 182.428 80.6346 192.909C70.713 202.211 55.9101 200.428 41.5976 198.707C39.8138 198.492 38.0474 198.279 36.3117 198.092C20.279 196.361 6.39354 198.052 -4.95647 203.116C-13.5314 206.942 -20.7394 212.979 -25.6167 220.108V221.999C-20.8561 214.461 -13.4639 208.039 -4.54175 204.057C6.64135 199.066 20.3507 197.404 36.2022 199.116C37.9327 199.303 39.695 199.514 41.4748 199.728C55.3428 201.398 71.0622 203.29 81.3309 193.662C92.9256 182.79 90.0195 162.671 80.6776 150.265C73.7379 141.047 64.0714 134.356 54.7222 127.886Z" fill="#18181A"/>
</g>
<mask id="mask9_77_2" style="mask-type:luminance" maskUnits="userSpaceOnUse" x="-24" y="0" width="768" height="515">
<path d="M744 0H-24V515H744V0Z" fill="white"/>
</mask>
<g mask="url(#mask9_77_2)">
<path d="M63.0145 120.122C52.922 112.277 41.4829 103.385 30.8528 93.1419C2.59445 65.9108 -2.76312 22.9103 -2.68529 -6.26648H-3.78302C-3.80862 -0.85795 -3.6499 5.00893 -3.1891 11.1518C-1.32337 36.0387 5.97365 70.5931 30.1452 93.8845C40.8142 104.166 52.2759 113.075 62.3889 120.936C86.8696 139.967 106.207 154.998 102.171 177.731C96.2812 210.905 69.3623 213.081 46.566 211.265C9.24022 208.299 -6.87345 219.773 -22.4557 230.872C-23.4919 231.61 -24.5549 232.359 -25.6157 233.107V234.365C-24.3511 233.478 -23.0936 232.588 -21.8648 231.713C-5.72145 220.214 9.53001 209.354 46.4841 212.292C69.7095 214.14 97.1445 211.901 103.179 177.912C107.324 154.564 87.7697 139.364 63.0145 120.122Z" fill="#18181A"/>
</g>
<mask id="mask10_77_2" style="mask-type:luminance" maskUnits="userSpaceOnUse" x="-24" y="0" width="768" height="515">
<path d="M744 0H-24V515H744V0Z" fill="white"/>
</mask>
<g mask="url(#mask10_77_2)">
<path d="M37.1105 136.82C32.3438 132.386 26.5418 129.224 20.9313 126.168C18.7645 124.987 16.524 123.766 14.3807 122.492C-3.22489 112.025 -17.2885 95.4594 -25.6167 76.4785V78.9618C-17.1042 97.2691 -3.28428 113.187 13.8595 123.378C16.0191 124.662 18.2689 125.887 20.4438 127.072C25.999 130.098 31.7437 133.228 36.4162 137.575C42.5049 143.239 47.2624 152.722 44.1648 161.141C40.6607 170.667 29.0014 174.321 20.0813 174.556C16.1451 174.663 12.1198 174.343 8.22548 174.036C2.30573 173.569 -3.81574 173.087 -9.78873 174.067C-15.7924 175.054 -21.8054 178.194 -25.6167 182.709V184.353C-22.0614 179.508 -15.8385 176.104 -9.62387 175.083C-3.77478 174.123 2.28423 174.6 8.14561 175.062C12.0645 175.371 16.1185 175.69 20.108 175.585C29.7899 175.33 41.4461 171.494 45.1243 161.497C48.3857 152.635 43.449 142.717 37.1105 136.82Z" fill="#18181A"/>
</g>
<mask id="mask11_77_2" style="mask-type:luminance" maskUnits="userSpaceOnUse" x="-24" y="0" width="768" height="515">
<path d="M744 0H-24V515H744V0Z" fill="white"/>
</mask>
<g mask="url(#mask11_77_2)">
<path d="M359.445 390.382C351.56 390.382 343.736 386.835 337.723 384.109L300.956 367.438C298.209 366.193 295.64 364.868 294.396 362.368C292.511 358.577 294.813 353.96 298.128 351.685C301.086 349.655 304.665 348.966 308.126 348.301L309.245 348.084C338.755 342.261 365.172 323.042 379.911 296.674C381.233 294.309 382.509 291.819 383.744 289.409C388.251 280.619 392.911 271.53 401.017 265.857C407.845 261.079 416.881 259.699 425.796 262.068C434.717 264.438 441.893 270.124 445.485 277.669C451.631 290.582 443.402 300.248 433.872 311.441C432.511 313.04 431.122 314.67 429.733 316.356L429.742 316.363L387.184 371.47C380.688 379.882 374.087 387.613 364.781 389.788C363.013 390.201 361.227 390.382 359.445 390.382ZM417.255 261.963C411.517 261.963 406.066 263.578 401.602 266.702C393.706 272.228 389.105 281.202 384.655 289.881C383.416 292.299 382.135 294.797 380.803 297.179C365.921 323.806 339.243 343.214 309.443 349.094L308.319 349.312C304.96 349.959 301.487 350.626 298.705 352.536C295.818 354.518 293.699 358.664 295.313 361.908C296.405 364.105 298.805 365.333 301.377 366.499L338.144 383.17C345.383 386.453 355.299 390.951 364.549 388.785C373.528 386.687 379.997 379.099 386.376 370.838L426.279 319.169L426.207 319.109C428.498 316.169 430.835 313.425 433.095 310.772C442.775 299.402 450.421 290.422 444.562 278.114C441.1 270.842 434.165 265.356 425.536 263.064C422.761 262.327 419.974 261.963 417.255 261.963Z" fill="#18181A"/>
</g>
<mask id="mask12_77_2" style="mask-type:luminance" maskUnits="userSpaceOnUse" x="-24" y="0" width="768" height="515">
<path d="M744 0H-24V515H744V0Z" fill="white"/>
</mask>
<g mask="url(#mask12_77_2)">
<path d="M522.693 -6.26648C527.54 -0.19257 530.498 7.39235 529.533 15.482C527.695 30.8763 512.711 41.2886 499.303 45.8989C493.221 47.9908 486.808 49.439 480.606 50.8388C472.139 52.7505 463.386 54.727 455.332 58.3701C446.094 62.5478 437.914 68.8535 430.004 74.9511C423.083 80.2865 415.926 85.8032 408.101 89.8593C381.669 103.562 347.652 99.29 325.38 79.4707C307.094 63.1977 298.155 39.2389 289.509 16.0691C288.146 12.4157 286.787 8.77461 285.399 5.17682C283.996 1.54401 282.431 -2.31128 280.678 -6.26545H279.554C281.375 -2.1815 282.997 1.80357 284.443 5.54968C285.831 9.14335 287.189 12.7803 288.551 16.4306C297.239 39.7179 306.225 63.7993 324.701 80.2412C338.442 92.4693 356.589 98.8594 374.732 98.8594C386.405 98.8594 398.079 96.2134 408.571 90.7739C416.476 86.6756 423.669 81.1311 430.626 75.7689C438.492 69.7063 446.623 63.4388 455.751 59.3105C463.71 55.7107 472.414 53.7454 480.829 51.8451C487.058 50.4391 493.499 48.9848 499.634 46.8753C513.337 42.1631 528.654 31.4737 530.547 15.6066C531.514 7.50668 528.697 -0.0988393 523.991 -6.26442H522.693V-6.26648Z" fill="#18181A"/>
<path d="M389.721 4.33016C397.678 1.73147 405.688 -1.18755 413.434 -4.01078C415.494 -4.76165 417.563 -5.51561 419.64 -6.26648H416.621C415.44 -5.83697 414.26 -5.40746 413.084 -4.97898C405.346 -2.15884 397.344 0.75709 389.404 3.35063C372.914 8.73547 353.579 13.6218 335.204 9.04035C324.396 6.34484 314.913 0.69735 306.135 -6.26648H304.491C313.646 1.14334 323.556 7.19665 334.958 10.0405C353.582 14.6837 373.093 9.76032 389.721 4.33016Z" fill="#18181A"/>
</g>
<mask id="mask13_77_2" style="mask-type:luminance" maskUnits="userSpaceOnUse" x="-24" y="0" width="768" height="515">
<path d="M744 0H-24V515H744V0Z" fill="white"/>
</mask>
<g mask="url(#mask13_77_2)">
<path d="M415.328 137.442C414.54 135.16 413.161 133.159 410.889 132.197C408.717 131.278 406.252 131.446 404.004 131.971C401.183 132.63 398.495 133.888 395.987 135.32C393.822 136.557 391.883 138.292 389.618 139.328C385.992 140.987 381.777 141.149 377.881 141.612C374.478 142.015 370.531 142.38 367.722 144.565C363.916 147.527 364.958 152.748 366.373 156.705C366.75 156.601 367.127 156.496 367.504 156.392C367.494 156.365 367.483 156.339 367.473 156.313C367.206 155.622 366.111 155.888 366.343 156.626C367.588 160.588 369.02 164.509 370.834 168.246C371.121 168.839 372.147 168.418 371.905 167.792C371.9 167.778 371.894 167.764 371.889 167.75C371.531 167.901 371.175 168.053 370.817 168.204C375.413 176.215 380.892 184.68 388.643 189.965C392.915 192.878 398.24 194.533 403.234 192.528C408.033 190.6 411.337 186.131 413.522 181.592C416.415 175.582 417.794 168.874 418.26 162.244C418.844 153.906 417.922 145.393 415.328 137.442C415.093 136.724 413.962 137.032 414.197 137.755C418.377 150.562 418.581 165.578 413.702 178.233C411.886 182.942 409.088 187.833 404.667 190.503C400.334 193.119 395.355 192.494 391.072 190.091C387.561 188.119 384.584 185.277 381.942 182.261C378.028 177.789 374.781 172.759 371.828 167.609C371.508 167.05 370.51 167.424 370.757 168.063C370.762 168.077 370.767 168.091 370.773 168.105C371.131 167.954 371.487 167.802 371.845 167.651C370.074 164.004 368.687 160.178 367.471 156.312C367.094 156.416 366.717 156.521 366.341 156.625C366.351 156.652 366.361 156.678 366.371 156.704C366.64 157.399 367.76 157.112 367.502 156.391C366.313 153.067 365.079 148.417 368.159 145.717C370.594 143.583 374.364 143.219 377.428 142.845C381.018 142.406 384.712 142.197 388.186 141.117C389.916 140.58 391.354 139.752 392.831 138.718C395.066 137.155 397.427 135.745 399.916 134.629C402.517 133.463 405.483 132.471 408.37 132.765C411.309 133.064 413.255 135.021 414.198 137.755C414.444 138.468 415.577 138.161 415.328 137.442Z" fill="#18181A"/>
</g>
<mask id="mask14_77_2" style="mask-type:luminance" maskUnits="userSpaceOnUse" x="-24" y="0" width="768" height="515">
<path d="M744 0H-24V515H744V0Z" fill="white"/>
</mask>
<g mask="url(#mask14_77_2)">
<path d="M359.723 80.4419C358.83 80.2504 357.955 80.0454 357.098 79.8291C355.194 79.5839 353.301 79.2605 351.421 78.8599L351.565 78.1759C343.862 75.4804 337.929 71.5901 333.87 66.5617C327.847 59.0972 325.737 46.59 332.631 38.5786C338.832 31.3727 349.35 30.6126 358.631 29.941L360.751 29.7845C373.952 28.7751 386.928 25.8962 399.323 21.2272L400.388 20.8245C407.695 18.059 415.976 14.9247 423.176 18.3123C430.421 21.7227 433.227 30.5817 432.251 37.5702C431.355 44.0005 427.883 50.3392 421.636 56.9497C405.958 73.542 382.419 82.1785 359.792 80.1247L359.723 80.4419ZM357.288 78.8156C380.38 81.7747 404.823 73.2433 420.893 56.2411C426.987 49.7912 430.371 43.6369 431.236 37.4271C432.159 30.8124 429.538 22.4437 422.74 19.2455C415.929 16.0381 407.865 19.0941 400.748 21.7886L399.682 22.1913C387.196 26.8943 374.124 29.7948 360.828 30.8114L358.703 30.9679C349.177 31.657 339.327 32.3698 333.405 39.2522C326.861 46.8557 328.907 58.779 334.664 65.9128C339.495 71.896 347.097 76.2303 357.288 78.8156Z" fill="#18181A"/>
</g>
<mask id="mask15_77_2" style="mask-type:luminance" maskUnits="userSpaceOnUse" x="-24" y="0" width="768" height="515">
<path d="M744 0H-24V515H744V0Z" fill="white"/>
</mask>
<g mask="url(#mask15_77_2)">
<path d="M251.909 448.693C247.397 448.693 241.414 445.748 234.306 435.439C223.239 421.988 210.951 419.42 199.068 416.937C189.785 414.997 181.017 413.165 173.356 406.342C167.028 399.851 166.456 392.297 168.683 387.68C170.323 384.282 173.424 382.485 176.974 382.876L184.371 384.05C192.199 384.606 201.267 383.889 210.871 383.13C236.798 381.08 263.614 378.961 269.004 402.266C272.68 418.158 267.356 442.774 256.132 447.782C254.919 448.325 253.506 448.693 251.909 448.693ZM175.993 383.849C173.24 383.849 170.934 385.373 169.604 388.129C167.533 392.422 168.107 399.487 174.061 405.596C181.491 412.212 190.129 414.018 199.276 415.928C211.331 418.448 223.799 421.053 235.12 434.817C242.45 445.44 249.563 449.585 255.718 446.841C266.532 442.014 271.599 418.024 268.008 402.499C262.816 380.058 236.449 382.14 210.951 384.156C201.309 384.916 192.201 385.637 184.256 385.072L176.839 383.895C176.553 383.865 176.271 383.849 175.993 383.849Z" fill="#18181A"/>
</g>
<mask id="mask16_77_2" style="mask-type:luminance" maskUnits="userSpaceOnUse" x="-24" y="0" width="768" height="515">
<path d="M744 0H-24V515H744V0Z" fill="white"/>
</mask>
<g mask="url(#mask16_77_2)">
<path d="M91.7316 261.898C86.7191 261.899 83.5979 256.473 81.0687 252.078L80.6959 251.432C73.7419 239.402 62.1707 225.813 46.5476 229.387L46.5435 229.388C41.4224 230.514 38.1098 229.763 36.6998 227.162C36.027 225.92 36.0024 224.444 36.6311 223.004C37.479 221.062 39.3519 219.474 41.404 218.958C44.2753 218.24 47.1958 218.952 50.0199 219.643C50.492 219.759 50.962 219.874 51.43 219.981C61.4724 222.293 72.1639 221.199 81.5376 216.898C84.9261 215.343 91.9773 212.111 95.3893 216.485C96.6212 218.063 96.8516 220.166 97.0369 221.855L99.6379 245.485C99.9758 248.553 100.358 252.032 99.4126 255.261C98.5227 258.3 96.0119 261.522 92.4095 261.866C92.1811 261.888 91.9538 261.898 91.7316 261.898ZM51.6194 227.772C65.1618 227.772 75.2534 239.969 81.5807 250.914L81.9544 251.562C84.5789 256.123 87.5588 261.31 92.3132 260.84C95.4395 260.543 97.639 257.677 98.4316 254.97C99.3184 251.94 98.9477 248.571 98.621 245.598L96.0191 221.967C95.848 220.408 95.6351 218.468 94.5834 217.121C92.0224 213.836 87.0048 215.523 81.9626 217.836C72.3872 222.229 61.4621 223.348 51.2027 220.986C50.7296 220.877 50.2555 220.761 49.7793 220.645C47.0739 219.982 44.2774 219.299 41.6518 219.959C39.9233 220.392 38.2818 221.783 37.5681 223.418C37.2158 224.226 36.9353 225.445 37.5988 226.67C38.7641 228.821 41.6989 229.396 46.3233 228.383C48.143 227.967 49.9094 227.772 51.6194 227.772Z" fill="#18181A"/>
</g>
<mask id="mask17_77_2" style="mask-type:luminance" maskUnits="userSpaceOnUse" x="-24" y="0" width="768" height="515">
<path d="M744 0H-24V515H744V0Z" fill="white"/>
</mask>
<g mask="url(#mask17_77_2)">
<path d="M347.742 372.366C343.348 372.366 338.825 370.489 335.733 367.335C333.191 364.739 331.932 361.528 332.189 358.291C332.876 349.653 342.415 345.396 350.079 341.976L350.364 341.85C368.053 333.952 383.373 320.468 393.503 303.883C394.349 302.498 395.162 301.09 395.975 299.682C398.09 296.02 400.275 292.235 403.035 288.926C407.478 283.597 412.866 280.457 418.203 280.084C421.87 279.828 425.367 281.19 427.333 283.642C428.6 285.221 429.849 288.011 428.603 292.329L428.583 292.383C419.393 314.678 392.179 342.742 369.775 361.57C363.917 366.494 356.976 371.793 348.736 372.335C348.407 372.355 348.074 372.366 347.742 372.366ZM419.087 281.083C418.817 281.083 418.547 281.092 418.275 281.111C411.45 281.588 406.288 286.625 403.819 289.587C401.117 292.827 398.954 296.574 396.862 300.198C396.044 301.613 395.227 303.029 394.376 304.422C384.14 321.183 368.657 334.81 350.78 342.791L350.495 342.919C343.079 346.227 333.85 350.346 333.211 358.373C332.911 362.134 334.815 364.929 336.463 366.612C339.538 369.749 344.33 371.6 348.671 371.306C356.604 370.784 363.386 365.598 369.121 360.778C391.421 342.036 418.498 314.132 427.628 292.013C428.507 288.944 428.13 286.274 426.536 284.288C424.921 282.274 422.119 281.083 419.087 281.083Z" fill="#18181A"/>
</g>
<mask id="mask18_77_2" style="mask-type:luminance" maskUnits="userSpaceOnUse" x="-24" y="0" width="768" height="515">
<path d="M744 0H-24V515H744V0Z" fill="white"/>
</mask>
<g mask="url(#mask18_77_2)">
<path d="M752.02 352.901C747.622 350.858 744.109 347.707 741.966 345.439C738.838 342.132 736.143 338.335 733.537 334.663C731.75 332.145 729.9 329.54 727.919 327.101C719.493 316.729 707.911 308.629 695.308 304.298C693.521 303.683 691.683 303.131 689.905 302.598C686.201 301.485 682.371 300.336 678.881 298.581C672.999 295.623 669.007 291.12 667.932 286.225C666.831 281.224 668.713 275.291 672.964 270.354C676.145 266.661 680.227 263.763 684.176 260.962C684.968 260.398 685.762 259.835 686.547 259.266C699.66 249.776 711.141 238.314 720.67 225.197C721.401 224.192 722.127 223.171 722.855 222.147C727.806 215.185 732.925 207.985 740.521 204.435C743.956 202.831 748.155 202.461 752.02 203.28V202.237C747.997 201.432 743.655 201.835 740.089 203.5C732.249 207.165 727.051 214.477 722.022 221.548C721.296 222.57 720.572 223.587 719.844 224.589C710.377 237.618 698.973 249.004 685.948 258.43C685.165 258.997 684.374 259.558 683.583 260.119C679.585 262.957 675.45 265.891 672.188 269.68C667.726 274.861 665.76 281.129 666.93 286.447C668.073 291.647 672.261 296.405 678.421 299.501C681.989 301.296 685.863 302.459 689.61 303.584C691.379 304.117 693.207 304.666 694.974 305.273C707.4 309.544 718.818 317.527 727.123 327.753C729.084 330.168 730.923 332.757 732.701 335.262C735.328 338.963 738.044 342.789 741.222 346.149C743.498 348.557 747.267 351.935 752.018 354.038V352.901H752.02Z" fill="#18181A"/>
</g>
</mask>
<g mask="url(#mask0_77_2)">
<path fill-rule="evenodd" clip-rule="evenodd" d="M468.367 83.9999C489.987 83.9999 511.395 88.2549 531.37 96.5218C551.344 104.789 569.493 116.906 584.78 132.181C600.068 147.456 612.195 165.591 620.468 185.549C628.742 205.507 633 226.898 633 248.5C633 270.103 628.742 291.493 620.468 311.452C612.194 331.41 600.068 349.544 584.78 364.819C569.493 380.094 551.344 392.211 531.37 400.478C520.626 404.925 509.469 408.21 498.086 410.298C488.306 412.091 478.359 413 468.367 413L398.379 413C385.769 413 378.114 399.092 384.862 388.439L414.153 342.195C417.086 337.563 422.187 334.756 427.669 334.756L468.367 334.756C479.845 334.756 491.21 333.571 501.814 329.183C512.418 324.794 522.053 318.361 530.169 310.252C538.285 302.142 544.723 292.515 549.115 281.92C553.507 271.324 555.768 259.968 555.768 248.5C555.768 237.032 553.507 225.676 549.115 215.08C544.723 204.485 538.285 194.858 530.169 186.748C522.053 178.639 512.418 172.206 501.814 167.817C491.21 163.429 479.845 161.17 468.367 161.17L418.864 161.17L385.305 161.17C376.468 161.17 369.305 154.006 369.305 145.17L369.305 100C369.305 91.1634 376.468 84 385.305 84L418.864 84L468.367 83.9999ZM211.39 334.756L360.219 334.756C372.59 334.756 380.281 348.194 374.015 358.86L346.852 405.104C343.978 409.996 338.729 413 333.056 413L211.748 413C203.799 413 195.903 412.239 188.162 410.746C173.367 407.892 159.139 402.365 146.185 394.365C126.454 382.179 110.451 364.731 99.9453 343.951C89.4395 323.17 84.8401 299.867 86.6557 276.616C88.0433 258.848 93.1362 241.639 101.532 226.091C105.803 218.18 116.134 216.684 123.295 222.118L158.743 249.017C165.66 254.266 167.051 264.322 165.589 272.882C165.04 276.096 164.75 279.416 164.486 282.79C163.8 291.574 165.538 300.379 169.507 308.23C173.477 316.081 179.523 322.673 186.978 327.277C194.33 331.818 202.771 334.679 211.39 334.756ZM216.824 162.244L102 162.244C93.1635 162.244 86 155.08 86 146.244L86 100C86 91.1634 93.1634 84 102 84L216.465 84C224.415 84 232.311 84.761 240.052 86.2541C254.846 89.1077 269.075 94.6354 282.028 102.635C301.759 114.821 317.762 132.269 328.268 153.049C338.774 173.83 343.373 197.133 341.558 220.383C340.17 238.152 335.077 255.361 326.682 270.909C322.411 278.82 312.08 280.316 304.918 274.882L269.471 247.983C262.553 242.734 261.163 232.678 262.625 224.118C263.173 220.904 263.464 217.584 263.727 214.21C264.413 205.426 262.675 196.621 258.706 188.77C254.737 180.919 248.691 174.327 241.236 169.723C233.883 165.182 225.443 162.321 216.824 162.244Z" fill="#1E1E1E"/>
</g>
</g>
<defs>
<clipPath id="clip0_77_2">
<rect width="688" height="512" fill="white"/>
</clipPath>
</defs>
</svg>
